ffmpeg started on 2016-12-06 at 18:43:18
Report written to "Output/x264/results/ffmpeg/crowd_run_2160p50medium4000k.log"
Command line:
Tools/ffmpeg/ffmpeg -benchmark -y -i Input/y4m/crowd_run_2160p50.y4m -c:v libx264 -preset medium -b:v 4000k -an Output/x264/encoded/crowd_run_2160p50medium4000k.mkv
ffmpeg version N-82227-gdb23fde Copyright (c) 2000-2016 the FFmpeg developers
  built with gcc 5.4.0 (Ubuntu 5.4.0-6ubuntu1~16.04.2) 20160609
  configuration: --prefix=/home/jaroslav/ffmpeg_build --pkg-config-flags=--static --extra-cflags=-I/home/jaroslav/ffmpeg_build/include --extra-ldflags=-L/home/jaroslav/ffmpeg_build/lib --bindir=/home/jaroslav/bin --enable-gpl --enable-libass --enable-libfdk-aac --enable-libfreetype --enable-libmp3lame --enable-libopus --enable-libtheora --enable-libvorbis --enable-libvpx --enable-libx264 --enable-libx265 --enable-nvenc --enable-libmfx --enable-libxvid --enable-libgsm --enable-libopencore-amrnb --enable-version3 --enable-nonfree
  libavutil      55. 35.100 / 55. 35.100
  libavcodec     57. 66.101 / 57. 66.101
  libavformat    57. 57.100 / 57. 57.100
  libavdevice    57.  2.100 / 57.  2.100
  libavfilter     6. 66.100 /  6. 66.100
  libswscale      4.  3.100 /  4.  3.100
  libswresample   2.  4.100 /  2.  4.100
  libpostproc    54.  2.100 / 54.  2.100
Input #0, yuv4mpegpipe, from 'Input/y4m/crowd_run_2160p50.y4m':
  Duration: 00:00:10.00, start: 0.000000, bitrate: 4976642 kb/s
    Stream #0:0: Video: rawvideo (I420 / 0x30323449), yuv420p(progressive), 3840x2160, SAR 1:1 DAR 16:9, 50 fps, 50 tbr, 50 tbn, 50 tbc
[libx264 @ 0x2d371c0] using SAR=1/1
[libx264 @ 0x2d371c0] using cpu capabilities: MMX2 SSE2Fast SSSE3 SSE4.2 AVX FMA3 AVX2 LZCNT BMI2
[libx264 @ 0x2d371c0] profile High, level 5.2
[libx264 @ 0x2d371c0] 264 - core 148 - H.264/MPEG-4 AVC codec - Copyleft 2003-2016 - http://www.videolan.org/x264.html - options: cabac=1 ref=3 deblock=1:0:0 analyse=0x3:0x113 me=hex subme=7 psy=1 psy_rd=1.00:0.00 mixed_ref=1 me_range=16 chroma_me=1 trellis=1 8x8dct=1 cqm=0 deadzone=21,11 fast_pskip=1 chroma_qp_offset=-2 threads=6 lookahead_threads=1 sliced_threads=0 nr=0 decimate=1 interlaced=0 bluray_compat=0 constrained_intra=0 bframes=3 b_pyramid=2 b_adapt=1 b_bias=0 direct=1 weightb=1 open_gop=0 weightp=2 keyint=250 keyint_min=25 scenecut=40 intra_refresh=0 rc_lookahead=40 rc=abr mbtree=1 bitrate=4000 ratetol=1.0 qcomp=0.60 qpmin=0 qpmax=69 qpstep=4 ip_ratio=1.40 aq=1:1.00
Output #0, matroska, to 'Output/x264/encoded/crowd_run_2160p50medium4000k.mkv':
  Metadata:
    encoder         : Lavf57.57.100
    Stream #0:0: Video: h264 (libx264) (H264 / 0x34363248), yuv420p, 3840x2160 [SAR 1:1 DAR 16:9], q=-1--1, 4000 kb/s, 50 fps, 1k tbn, 50 tbc
    Metadata:
      encoder         : Lavc57.66.101 libx264
    Side data:
      cpb: bitrate max/min/avg: 0/0/4000000 buffer size: 0 vbv_delay: -1
Stream mapping:
  Stream #0:0 -> #0:0 (rawvideo (native) -> h264 (libx264))
Press [q] to stop, [?] for help
frame=   19 fps=0.0 q=0.0 size=       0kB time=00:00:00.00 bitrate=N/A speed=   0x    frame=   32 fps= 31 q=0.0 size=       0kB time=00:00:00.00 bitrate=N/A speed=   0x    frame=   40 fps= 25 q=0.0 size=       0kB time=00:00:00.00 bitrate=N/A speed=   0x    frame=   47 fps= 12 q=0.0 size=       0kB time=00:00:00.00 bitrate=N/A speed=   0x    frame=   53 fps= 12 q=42.0 size=       1kB time=00:00:00.00 bitrate=5872.0kbits/s speed=0.000219x    frame=   58 fps= 11 q=49.0 size=       1kB time=00:00:00.10 bitrate=  58.1kbits/s speed=0.0193x    frame=   66 fps= 11 q=58.0 size=       1kB time=00:00:00.26 bitrate=  22.5kbits/s speed=0.0437x    frame=   74 fps= 11 q=57.0 size=       1kB time=00:00:00.42 bitrate=  13.9kbits/s speed=0.0644x    frame=   82 fps= 12 q=57.0 size=       1kB time=00:00:00.58 bitrate=  10.1kbits/s speed=0.0819x    frame=   90 fps= 12 q=57.0 size=       1kB time=00:00:00.74 bitrate=   7.9kbits/s speed=0.097x    frame=   98 fps= 12 q=57.0 size=       1kB time=00:00:00.90 bitrate=   6.5kbits/s speed=0.11x    frame=  105 fps= 12 q=56.0 size=       1kB time=00:00:01.04 bitrate=   5.6kbits/s speed=0.12x    frame=  111 fps= 12 q=56.0 size=       1kB time=00:00:01.16 bitrate=   5.1kbits/s speed=0.126x    frame=  118 fps= 12 q=56.0 size=       1kB time=00:00:01.30 bitrate=   4.5kbits/s speed=0.133x    frame=  127 fps= 12 q=55.0 size=       1kB time=00:00:01.48 bitrate=   4.0kbits/s speed=0.143x    frame=  134 fps= 12 q=55.0 size=       1kB time=00:00:01.62 bitrate=   3.6kbits/s speed=0.149x    frame=  142 fps= 12 q=55.0 size=       1kB time=00:00:01.78 bitrate=   3.3kbits/s speed=0.155x    frame=  149 fps= 12 q=55.0 size=       1kB time=00:00:01.92 bitrate=   3.1kbits/s speed=0.16x    frame=  156 fps= 12 q=55.0 size=       1kB time=00:00:02.06 bitrate=   2.8kbits/s speed=0.165x    frame=  162 fps= 12 q=55.0 size=       1kB time=00:00:02.18 bitrate=   2.7kbits/s speed=0.164x    frame=  170 fps= 12 q=55.0 size=       1kB time=00:00:02.34 bitrate=   2.5kbits/s speed=0.169x    frame=  178 fps= 12 q=55.0 size=       1kB time=00:00:02.50 bitrate=   2.3kbits/s speed=0.173x    frame=  186 fps= 12 q=54.0 size=       1kB time=00:00:02.66 bitrate=   2.2kbits/s speed=0.177x    frame=  195 fps= 12 q=54.0 size=       1kB time=00:00:02.84 bitrate=   2.1kbits/s speed=0.181x    frame=  201 fps= 12 q=54.0 size=       1kB time=00:00:02.96 bitrate=   2.0kbits/s speed=0.183x    frame=  210 fps= 12 q=54.0 size=       1kB time=00:00:03.14 bitrate=   1.9kbits/s speed=0.186x    frame=  213 fps= 12 q=54.0 size=       1kB time=00:00:03.20 bitrate=   1.8kbits/s speed=0.181x    frame=  222 fps= 12 q=54.0 size=       1kB time=00:00:03.38 bitrate=   1.7kbits/s speed=0.185x    frame=  228 fps= 12 q=54.0 size=       1kB time=00:00:03.50 bitrate=   1.7kbits/s speed=0.187x    frame=  235 fps= 12 q=54.0 size=       1kB time=00:00:03.64 bitrate=   1.6kbits/s speed=0.189x    frame=  242 fps= 12 q=54.0 size=       1kB time=00:00:03.78 bitrate=   1.6kbits/s speed=0.191x    frame=  249 fps= 12 q=54.0 size=       1kB time=00:00:03.92 bitrate=   1.5kbits/s speed=0.193x    frame=  254 fps= 12 q=54.0 size=       1kB time=00:00:04.02 bitrate=   1.5kbits/s speed=0.193x    frame=  259 fps= 12 q=54.0 size=       1kB time=00:00:04.12 bitrate=   1.4kbits/s speed=0.193x    frame=  266 fps= 12 q=54.0 size=       1kB time=00:00:04.26 bitrate=   1.4kbits/s speed=0.194x    frame=  274 fps= 12 q=54.0 size=       1kB time=00:00:04.42 bitrate=   1.3kbits/s speed=0.196x    frame=  279 fps= 12 q=54.0 size=       1kB time=00:00:04.52 bitrate=   1.3kbits/s speed=0.196x    frame=  283 fps= 12 q=54.0 size=       1kB time=00:00:04.60 bitrate=   1.3kbits/s speed=0.195x    frame=  288 fps= 12 q=54.0 size=       1kB time=00:00:04.70 bitrate=   1.2kbits/s speed=0.195x    frame=  294 fps= 12 q=54.0 size=       1kB time=00:00:04.82 bitrate=   1.2kbits/s speed=0.195x    frame=  296 fps= 11 q=51.0 size=       1kB time=00:00:04.86 bitrate=   1.2kbits/s speed=0.189x    frame=  305 fps= 12 q=54.0 size=    2536kB time=00:00:05.04 bitrate=4120.8kbits/s speed=0.191x    frame=  312 fps= 12 q=54.0 size=    2536kB time=00:00:05.18 bitrate=4009.5kbits/s speed=0.192x    frame=  320 fps= 12 q=54.0 size=    2536kB time=00:00:05.34 bitrate=3889.4kbits/s speed=0.194x    frame=  327 fps= 12 q=54.0 size=    2536kB time=00:00:05.48 bitrate=3790.0kbits/s speed=0.196x    frame=  333 fps= 12 q=54.0 size=    2536kB time=00:00:05.60 bitrate=3708.8kbits/s speed=0.195x    frame=  341 fps= 12 q=54.0 size=    2536kB time=00:00:05.76 bitrate=3605.8kbits/s speed=0.197x    frame=  345 fps= 12 q=54.0 size=    2536kB time=00:00:05.84 bitrate=3556.4kbits/s speed=0.196x    frame=  353 fps= 12 q=54.0 size=    2536kB time=00:00:06.00 bitrate=3461.6kbits/s speed=0.196x    frame=  359 fps= 12 q=54.0 size=    2536kB time=00:00:06.12 bitrate=3393.7kbits/s speed=0.196x    frame=  366 fps= 12 q=54.0 size=    2536kB time=00:00:06.26 bitrate=3317.9kbits/s speed=0.197x    frame=  372 fps= 12 q=54.0 size=    2536kB time=00:00:06.38 bitrate=3255.5kbits/s speed=0.198x    frame=  379 fps= 12 q=55.0 size=    2536kB time=00:00:06.52 bitrate=3185.6kbits/s speed=0.199x    frame=  387 fps= 12 q=55.0 size=    2536kB time=00:00:06.68 bitrate=3109.3kbits/s speed=0.199x    frame=  395 fps= 12 q=55.0 size=    2536kB time=00:00:06.84 bitrate=3036.6kbits/s speed=0.201x    frame=  402 fps= 12 q=55.0 size=    2536kB time=00:00:06.98 bitrate=2975.7kbits/s speed=0.202x    frame=  408 fps= 12 q=55.0 size=    2536kB time=00:00:07.10 bitrate=2925.4kbits/s speed=0.202x    frame=  415 fps= 12 q=55.0 size=    2536kB time=00:00:07.24 bitrate=2868.8kbits/s speed=0.203x    frame=  417 fps= 12 q=55.0 size=    2536kB time=00:00:07.28 bitrate=2853.1kbits/s speed=0.201x    frame=  424 fps= 12 q=55.0 size=    2536kB time=00:00:07.42 bitrate=2799.2kbits/s speed=0.201x    frame=  431 fps= 12 q=55.0 size=    2536kB time=00:00:07.56 bitrate=2747.4kbits/s speed=0.202x    frame=  440 fps= 12 q=55.0 size=    2536kB time=00:00:07.74 bitrate=2683.5kbits/s speed=0.203x    frame=  448 fps= 12 q=55.0 size=    2536kB time=00:00:07.90 bitrate=2629.2kbits/s speed=0.204x    frame=  456 fps= 12 q=55.0 size=    2536kB time=00:00:08.06 bitrate=2577.0kbits/s speed=0.204x    frame=  461 fps= 12 q=55.0 size=    2536kB time=00:00:08.16 bitrate=2545.4kbits/s speed=0.204x    frame=  468 fps= 12 q=55.0 size=    2536kB time=00:00:08.30 bitrate=2502.5kbits/s speed=0.204x    frame=  476 fps= 12 q=55.0 size=    2536kB time=00:00:08.46 bitrate=2455.2kbits/s speed=0.205x    frame=  484 fps= 12 q=55.0 size=    2536kB time=00:00:08.62 bitrate=2409.6kbits/s speed=0.206x    frame=  492 fps= 12 q=55.0 size=    2536kB time=00:00:08.78 bitrate=2365.7kbits/s speed=0.207x    frame=  498 fps= 12 q=55.0 size=    2536kB time=00:00:08.90 bitrate=2333.8kbits/s speed=0.207x    frame=  500 fps= 11 q=-1.0 Lsize=    5067kB time=00:00:09.94 bitrate=4175.5kbits/s speed=0.215x    
video:5063kB audio:0kB subtitle:0kB other streams:0kB global headers:0kB muxing overhead: 0.085857%
bench: utime=147.732s
bench: maxrss=1829200kB
[libx264 @ 0x2d371c0] frame I:2     Avg QP:43.38  size:135808
[libx264 @ 0x2d371c0] frame P:126   Avg QP:50.82  size: 20541
[libx264 @ 0x2d371c0] frame B:372   Avg QP:50.86  size:  6247
[libx264 @ 0x2d371c0] consecutive B-frames:  0.8%  0.0%  0.0% 99.2%
[libx264 @ 0x2d371c0] mb I  I16..4: 25.5% 69.2%  5.3%
[libx264 @ 0x2d371c0] mb P  I16..4:  6.2%  2.0%  0.0%  P16..4: 19.4%  1.4%  1.7%  0.0%  0.0%    skip:69.3%
[libx264 @ 0x2d371c0] mb B  I16..4:  0.0%  0.0%  0.0%  B16..8: 17.1%  0.1%  0.0%  direct: 0.2%  skip:82.5%  L0:39.3% L1:60.7% BI: 0.0%
[libx264 @ 0x2d371c0] final ratefactor: 46.54
[libx264 @ 0x2d371c0] 8x8 transform intra:31.3% inter:98.2%
[libx264 @ 0x2d371c0] coded y,uvDC,uvAC intra: 8.5% 43.3% 3.4% inter: 0.9% 2.8% 0.0%
[libx264 @ 0x2d371c0] i16 v,h,dc,p: 52% 25% 12% 11%
[libx264 @ 0x2d371c0] i8 v,h,dc,ddl,ddr,vr,hd,vl,hu: 19%  9% 43%  6%  5%  6%  5%  5%  3%
[libx264 @ 0x2d371c0] i4 v,h,dc,ddl,ddr,vr,hd,vl,hu: 26% 19% 12%  9%  9%  8%  7%  6%  5%
[libx264 @ 0x2d371c0] i8c dc,h,v,p: 93%  3%  4%  0%
[libx264 @ 0x2d371c0] Weighted P-Frames: Y:1.6% UV:0.8%
[libx264 @ 0x2d371c0] ref P L0: 68.9%  1.2% 21.1%  8.6%  0.1%
[libx264 @ 0x2d371c0] ref B L0: 94.5%  3.8%  1.7%
[libx264 @ 0x2d371c0] ref B L1: 98.4%  1.6%
[libx264 @ 0x2d371c0] kb/s:4146.79
